<?xml version="1.0" encoding="utf-8"?>
<!-- Generator: Adobe Illustrator 26.5.0, SVG Export Plug-In . SVG Version: 6.00 Build 0)  -->
<svg version="1.1" id="Layer_1" xmlns="http://www.w3.org/2000/svg" xmlns:xlink="http://www.w3.org/1999/xlink" x="0px" y="0px"
	 viewBox="0 0 58.89 117.04" style="enable-background:new 0 0 58.89 117.04;" xml:space="preserve">
<style type="text/css">
	.st0{fill:none;}
	.st1{fill:#CAD2C5;}
	.st2{fill:#52796F;}
</style>
<g>
	<polygon class="st0" points="11.89,22.84 11.89,17.6 11.89,22.84 	"/>
	<polygon class="st1" points="47.65,27.36 23.49,27.36 23.49,32.6 47.65,32.6 47.65,32.7 51.25,27.36 	"/>
	<polygon class="st1" points="48.68,83 11.89,83 11.89,22.84 11.89,22.84 11.89,17.6 8.32,22.84 8.32,22.84 8.32,22.84 8.32,22.84 
		8.32,22.84 8.32,88.24 48.68,88.24 48.68,88.24 48.68,88.24 48.68,88.24 48.68,88.23 52.25,83 	"/>
	<polygon class="st1" points="42.63,53.88 23.49,53.88 23.49,59.12 43.44,59.12 43.44,59.08 43.57,59.08 47.01,53.88 43.57,53.88 	
		"/>
	<polygon class="st2" points="11.89,83 48.68,83 52.25,83 52.25,73.24 23.49,73.24 23.49,59.12 23.49,53.88 42.63,53.88 
		43.57,53.88 47.01,53.88 47.01,44.12 23.49,44.12 23.49,32.6 23.49,27.36 47.65,27.36 51.25,27.36 51.25,17.6 11.89,17.6 
		11.89,22.84 	"/>
</g>
</svg>
